<svg xmlns="http://www.w3.org/2000/svg" viewBox="0 0 500 500"><defs><style>.cls-1{fill:#fbfbfb;}.cls-2{fill:#71421a;}.cls-3{fill:#fff;}.cls-4{fill:#687d6f;}.cls-5{fill:#314731;}</style></defs><g id="config"><rect class="cls-1" x="27.5" y="27.5" width="445" height="445" rx="67.04"/><path class="cls-2" d="M405.46,30A64.61,64.61,0,0,1,470,94.54V405.46A64.61,64.61,0,0,1,405.46,470H94.54A64.61,64.61,0,0,1,30,405.46V94.54A64.61,64.61,0,0,1,94.54,30H405.46m0-5H94.54A69.53,69.53,0,0,0,25,94.54V405.46A69.53,69.53,0,0,0,94.54,475H405.46A69.53,69.53,0,0,0,475,405.46V94.54A69.53,69.53,0,0,0,405.46,25Z"/><path class="cls-3" d="M46.27,253.74c0,30.64,29.92,59.24,77.09,75.37-9.42,47.42-1.69,85.64,24.13,100.53C174,445,213.58,434.36,251.12,401.55c36.58,31.48,73.56,43.87,99.36,28.94,26.52-15.36,34.58-56.17,24.91-105.07C424.52,309.17,452,284.78,452,253.74c0-29.93-30-55.82-76.51-71.84,10.42-50.93,1.59-88.22-25.3-103.73-25.93-15-63.34-1.92-100.46,30.39C211.1,74.27,174.07,63.8,147.2,79.35c-25.9,15-33.29,53.91-23.84,102.21C77.78,197.45,46.27,223.93,46.27,253.74Z"/><path class="cls-4" d="M365.63,197.8q-5.75-2-11.6-3.65c.65-2.63,1.25-5.26,1.8-7.91,8.78-42.63,3-77-16.57-88.27-18.8-10.84-49.54.47-80.59,27.49q-4.59,4-9,8.23c-1.95-1.88-3.94-3.71-6-5.52C211.19,99.28,178.58,87.11,159,98.45c-18.78,10.87-24.34,43.15-16.43,83.54q1.17,6,2.66,11.94-6.93,2-13.34,4.19c-38.15,13.3-62.51,34.14-62.51,55.77,0,22.33,26.15,44.73,65.89,58.31q4.83,1.64,9.74,3-1.59,6.39-2.83,12.87c-7.53,39.69-1.65,71.2,17.08,82,19.35,11.15,51.81-.31,83.43-27.95,2.5-2.18,5-4.5,7.52-6.93q4.74,4.58,9.74,8.89c30.62,26.35,60.87,37,79.58,26.16,19.33-11.19,25.61-45.05,17.45-86.24-.62-3.14-1.34-6.36-2.16-9.63,2.28-.67,4.52-1.37,6.7-2.09,41.31-13.69,68.19-35.81,68.19-58.44,0-21.7-25.15-42.69-64.07-56.09Z"/><path class="cls-3" d="M356.67,297.72q-3,1-6.05,1.89A359.61,359.61,0,0,0,332.37,254a360.19,360.19,0,0,0,17.54-45c3.69,1.07,7.27,2.19,10.71,3.38,33.35,11.48,53.69,28.45,53.69,41.53,0,13.92-22,32-57.64,43.83ZM341.87,327c3.61,18.22,4.13,34.68,1.74,47.56-2.15,11.57-6.47,19.28-11.8,22.37-11.36,6.57-35.64-2-61.83-24.51-3-2.58-6-5.34-9.06-8.26a362.84,362.84,0,0,0,30.2-38.35,359.79,359.79,0,0,0,48.8-7.53q1.11,4.46,1.95,8.72ZM192.21,395.83c-11.09,3.92-19.93,4-25.27.95-11.36-6.55-16.09-31.86-9.64-65.8q1.14-6,2.63-12a359.94,359.94,0,0,0,48.56,7,372,372,0,0,0,30.93,38.22q-3.36,3.24-6.87,6.32c-14,12.22-28,20.89-40.33,25.25Zm-52-98.2c-17.57-6-32.08-13.81-42-22.32-8.93-7.66-13.45-15.26-13.45-21.42,0-13.12,19.56-29.86,52.19-41.24q6.13-2.13,12.4-3.9a370.44,370.44,0,0,0,17.56,45.51,375.21,375.21,0,0,0-17.78,46.15C146.15,299.56,143.18,298.63,140.24,297.63ZM157.66,179c-6.77-34.61-2.27-60.71,9-67.26,12.06-7,38.71,3,66.81,27.92,1.8,1.59,3.6,3.26,5.41,5a367.78,367.78,0,0,0-30.7,38,377.38,377.38,0,0,0-48.08,7.47c-.92-3.67-1.75-7.38-2.48-11.1Zm155.43,38.38q-5.28-9.12-11-18c11.5,1.45,22.52,3.38,32.86,5.75-3.11,10-7,20.36-11.53,31Q318.47,226.7,313.09,217.41Zm-63.38-61.73a329.16,329.16,0,0,1,21.2,25.59q-21.28-1-42.59,0C235.32,172,242.5,163.46,249.71,155.68Zm-63.79,61.84q-5.31,9.19-10.17,18.63c-4.49-10.63-8.32-21.08-11.45-31.18,10.28-2.3,21.24-4.18,32.66-5.61Q191.23,208.32,185.92,217.52Zm11.37,92a328,328,0,0,1-33.21-5.33c3.18-10.28,7.1-21,11.68-31.82Q180.65,281.8,186,291,191.41,300.39,197.29,309.5Zm52.84,43.68c-7.29-7.87-14.57-16.58-21.68-25.94,6.9.27,13.94.4,21.08.4q11,0,21.76-.48A327,327,0,0,1,250.13,353.18ZM323.6,271.8a324.87,324.87,0,0,1,12.1,31.7,328.77,328.77,0,0,1-33.61,5.73q5.71-9.06,11.06-18.34T323.6,271.8Zm-23.78,11.4q-8.19,14.24-17.29,27.89c-10.69.77-21.74,1.16-33,1.16s-22.12-.35-32.62-1q-9.33-13.62-17.61-27.93t-15.37-29q7.11-14.82,15.32-29h0q8.2-14.24,17.48-27.81c10.71-.81,21.7-1.24,32.81-1.24s22.15.43,32.87,1.24q9.16,13.56,17.36,27.73T315.3,254q-7.21,14.85-15.48,29.16Zm31.75-171.89c12.07,7,16.76,35,9.18,71.82q-.75,3.6-1.62,7.16A369.5,369.5,0,0,0,291,182.68a360.43,360.43,0,0,0-30.46-38q4-3.9,8.29-7.6c26.6-23.15,51.46-32.29,62.79-25.76Z"/><path class="cls-5" d="M249.53,221.71a32.18,32.18,0,1,1-32.17,32.18,32.18,32.18,0,0,1,32.17-32.18"/></g></svg>