<svg xmlns="http://www.w3.org/2000/svg" viewBox="0 0 500 500"><defs><style>.cls-1,.cls-4{fill:none;}.cls-1,.cls-6,.cls-7{stroke:#fff;}.cls-1{stroke-width:2px;}.cls-2,.cls-5{fill:#fbfbfb;}.cls-3{fill:#71421a;}.cls-4,.cls-5{stroke:#71421a;stroke-width:3px;}.cls-4,.cls-5,.cls-6,.cls-7{stroke-miterlimit:10;}.cls-10,.cls-6{fill:#314731;}.cls-6,.cls-7{stroke-width:5px;}.cls-7{fill:#f2cf4e;}.cls-8{fill:#fff;}.cls-9{opacity:0.33;}.cls-11{opacity:0.6;}</style></defs><g id="avatar"><g id="Desktop"><g id="Home"><g id="Header-2" data-name="Header"><g id="sign-in"><g id="avatar-2" data-name="avatar"><path id="Stroke-1" class="cls-1" d="M213,250a15,15,0,1,1-15-15A15,15,0,0,1,213,250Z"/><path id="Stroke-3" class="cls-1" d="M203.5,247.5A5.5,5.5,0,1,1,198,242,5.5,5.5,0,0,1,203.5,247.5Z"/><path id="Stroke-5" class="cls-1" d="M208.62,260.17a11.33,11.33,0,0,0-21.12.11"/></g></g></g></g></g></g><g id="datacenter"><g id="derps"><rect class="cls-2" x="27.5" y="27.5" width="445" height="445" rx="67.04"/><path class="cls-3" d="M405.46,30A64.61,64.61,0,0,1,470,94.54V405.46A64.61,64.61,0,0,1,405.46,470H94.54A64.61,64.61,0,0,1,30,405.46V94.54A64.61,64.61,0,0,1,94.54,30H405.46m0-5H94.54A69.53,69.53,0,0,0,25,94.54V405.46A69.53,69.53,0,0,0,94.54,475H405.46A69.53,69.53,0,0,0,475,405.46V94.54A69.53,69.53,0,0,0,405.46,25Z"/></g><g id="fabric"><g id="lines"><line class="cls-4" x1="200.69" y1="371.38" x2="200.69" y2="115.42"/><line class="cls-4" x1="299.85" y1="115.42" x2="299.85" y2="371.38"/><line class="cls-4" x1="101.54" y1="371.38" x2="201.5" y2="116.5"/><polyline class="cls-4" points="201 371 300 117 400.5 373.5 101.54 115.42"/><polyline class="cls-4" points="300 372 201 116 399 371.38"/><line class="cls-4" x1="399" y1="115.42" x2="399" y2="371.38"/><line class="cls-4" x1="101.54" y1="115.42" x2="101.54" y2="371.38"/><line class="cls-4" x1="399" y1="115.42" x2="299.85" y2="371.38"/><line class="cls-4" x1="101.54" y1="115.42" x2="200.69" y2="371.38"/><line class="cls-4" x1="101.54" y1="115.42" x2="299.85" y2="371.38"/><line class="cls-5" x1="399" y1="115.42" x2="200.69" y2="371.38"/><line class="cls-4" x1="299.85" y1="115.42" x2="101.54" y2="371.38"/><line class="cls-4" x1="399" y1="115.42" x2="101.54" y2="371.38"/></g><g id="circles"><circle class="cls-6" cx="101.54" cy="371.38" r="24.01"/><circle class="cls-6" cx="399" cy="371.38" r="24.01"/><circle class="cls-6" cx="299.85" cy="371.38" r="24.01"/><circle class="cls-6" cx="200.69" cy="371.38" r="24.01"/><circle class="cls-7" cx="399" cy="115.42" r="24.01"/><circle class="cls-7" cx="101.54" cy="115.42" r="24.01"/><circle class="cls-7" cx="200.69" cy="115.42" r="24.01"/><circle class="cls-7" cx="299.85" cy="115.42" r="24.01"/></g></g><g id="burst"><g id="outline"><circle class="cls-8" cx="249.89" cy="243.34" r="84.75"/><path class="cls-3" d="M249.89,160.09a83.25,83.25,0,1,1-83.25,83.25,83.25,83.25,0,0,1,83.25-83.25m0-3a86.25,86.25,0,1,0,86.25,86.25,86.35,86.35,0,0,0-86.25-86.25Z"/></g><g id="bottomleft" class="cls-9"><path class="cls-10" d="M187.15,248.58a30.19,30.19,0,0,0-2.94,34.36,30.87,30.87,0,0,0,31.58,14.81c10.65-1.62,17.38-9.6,24.85-16.78l29.24-29,43-42.55L254.15,225l-39.89,10.65c-9.93,2.66-20.37,4.64-27.11,12.91"/></g><g id="bottom" class="cls-9"><path class="cls-10" d="M220.82,301.47a30.74,30.74,0,0,0,57.32,0c4-10,.41-19.93-2.26-29.77-3.55-13.15-7.13-26.34-10.65-39.61q-7.86-28.92-15.73-57.89-7.8,28.94-15.69,57.89Q228.55,252,223.12,271.7c-2.62,9.88-6.17,19.8-2.3,29.77"/></g><g id="bottomright" class="cls-9"><path class="cls-10" d="M286.27,297.75a30.85,30.85,0,0,0,31.42-14.81,30.26,30.26,0,0,0-2.79-34.36c-6.77-8.27-17.38-10.29-27.1-12.91L247.86,225l-58.6-15.57,43,42.56,29.25,29c7.22,7.22,14.16,15.12,24.81,16.78"/></g><g id="topright" class="cls-9"><path class="cls-10" d="M315,238.22a30.34,30.34,0,0,0,2.78-34.09,30.88,30.88,0,0,0-31.42-14.8c-10.65,1.69-17.39,9.68-24.85,16.78L232.23,235l-42.92,42.32c19.56-5.21,39.13-10.37,58.65-15.62,13.31-3.46,26.62-7.05,39.93-10.6,9.88-2.67,20.49-4.6,27.07-12.91"/></g><g id="topleft" class="cls-9"><path class="cls-10" d="M187.09,238.22a30.2,30.2,0,0,1-3-34.09A31,31,0,0,1,215.77,189c10.64,1.69,17.38,9.68,24.84,16.78l29.25,29,42.95,42.55L254.12,262l-39.89-10.89c-10-2.67-20.41-4.6-27.14-12.91"/></g><g id="top" class="cls-11"><path class="cls-10" d="M278.15,186.33a30.74,30.74,0,0,0-57.32,0c-3.87,10-.36,19.8,2.26,29.77,3.59,13.19,7.18,26.34,10.69,39.61q7.8,28.92,15.69,57.88,7.92-28.92,15.73-57.88c3.55-13.27,7.14-26.38,10.65-39.61,2.7-10,6.25-19.81,2.3-29.77"/></g></g></g></svg>