<svg xmlns="http://www.w3.org/2000/svg" viewBox="0 0 500 500"><defs><style>.cls-1{fill:#fbfbfb;}.cls-2{fill:#71421a;}.cls-3{fill:#687d6f;}.cls-4{fill:#314731;}.cls-5{fill:#f2cf4e;}</style></defs><g id="Security"><rect class="cls-1" x="27.5" y="27.5" width="445" height="445" rx="67.04"/><path class="cls-2" d="M405.46,30A64.61,64.61,0,0,1,470,94.54V405.46A64.61,64.61,0,0,1,405.46,470H94.54A64.61,64.61,0,0,1,30,405.46V94.54A64.61,64.61,0,0,1,94.54,30H405.46m0-5H94.54A69.53,69.53,0,0,0,25,94.54V405.46A69.53,69.53,0,0,0,94.54,475H405.46A69.53,69.53,0,0,0,475,405.46V94.54A69.53,69.53,0,0,0,405.46,25Z"/><g id="firewall"><path class="cls-3" d="M259.71,188.85l20.14-24.22a15.06,15.06,0,0,1,21-2.1l3.82,3.08a14.71,14.71,0,0,1,3.28,3.67c8.73,13.82,4,5.9,12.26,20,.92-.53-1,.32,0,0,1.55-.5,15.42,0,17,0L336.57,99H186.07v90.3h72.46"/><path class="cls-4" d="M426.87,114.05a15,15,0,0,0-15.05-15H366.67v90.3h60.2V114.05Z"/><path class="cls-3" d="M203.76,254.75a15,15,0,0,1,25.08-.64,124.49,124.49,0,0,1,10.61-34.71H65.67v60.2H192.8A103,103,0,0,1,203.76,254.75Z"/><path class="cls-4" d="M391.77,279.6h35.1V219.4h-60.2v15h0l3.07,4.94A108.33,108.33,0,0,1,391.77,279.6Z"/><path class="cls-4" d="M156,99H80.72a15.05,15.05,0,0,0-15,15V189.3H156Z"/><path class="cls-4" d="M65.67,385a15.05,15.05,0,0,0,15,15.05H156V309.7H65.67Z"/><path class="cls-4" d="M396.79,309.7a102.84,102.84,0,0,1-50.3,90.3h65.34A15.06,15.06,0,0,0,426.88,385V309.7Z"/><path class="cls-5" d="M347.12,259.24l-1.45-1.64a212.56,212.56,0,0,1-6.18,21,15.06,15.06,0,0,1-29.17-5.25c0-24.69-6.68-49.65-19.88-74.4l-7.86,9.45c-23.39,26.66-30.38,58.62-21.62,98a15.11,15.11,0,0,1-11.4,18,15,15,0,0,1-14-4.08,113.31,113.31,0,0,1-17.05-19.07A74.48,74.48,0,0,0,292.08,385c21.23-.54,41.7-8.86,55.94-24.68C373.36,332.13,373,288.69,347.12,259.24Z"/><path class="cls-3" d="M213.8,379.4c-17.2-19.6-25.64-44.61-25.54-69.7h-2.18V400h52.45A104.67,104.67,0,0,1,213.8,379.4Z"/></g></g></svg>